<?xml version="1.0" encoding="UTF-8"?> <svg xmlns="http://www.w3.org/2000/svg" xml:space="preserve" style="enable-background:new 0 0 512 512" viewBox="0 0 512 512"><path d="m442.8 148.4-17.2 17.2c19.5 30.5 28.7 66.4 26.1 102.5-2.6 36.1-16.8 70.4-40.5 97.7l-17-17-5.8-5.7-17-17c-10.5 13-23.7 23.4-38.7 30.6-15 7.2-31.5 11-48.1 11.1-22.9 0-45.2-7-63.9-20.1-18.7-13.1-33-31.6-40.9-53-2.9-7.7-4.9-15.8-5.9-24H93.2c.6 8 1.7 16.1 3.3 24 5.7 27.8 17.5 54 34.5 76.6s38.9 41.3 64 54.5c25.1 13.2 52.8 20.7 81.2 21.9 28.3 1.2 56.6-3.9 82.7-14.9s49.5-27.7 68.4-48.9c18.9-21.2 32.9-46.2 40.9-73.5 8-27.2 9.9-55.9 5.5-83.9-4.4-28-14.9-54.7-30.9-78.1zM284.4 423.9c-37.8 0-74.4-12.8-104.1-36.3-29.6-23.4-50.5-56.2-59.2-93h33.2c6.4 21.6 18 41.2 33.9 57.2 15.9 16 35.5 27.7 57 34.2 21.5 6.5 44.4 7.5 66.4 3 22-4.5 42.6-14.5 59.8-28.9l5.8 5.8 16.9 17c-30.3 26.4-69.4 41-109.7 41z"></path><path d="M437.8 392.7c-5.4 5.9-11 11.6-17 16.9l13 12.9c-31.4 28.2-70.1 47-111.7 54.2s-84.4 2.4-123.4-13.7c-39-16.1-72.7-43-97.1-77.4-24.4-34.5-38.6-75.1-40.9-117.3-2.3-42.2 7.4-84.1 27.9-121 20.5-36.9 51.1-67.2 88.2-87.5 37-20.3 79.1-29.6 121.2-27 42.1 2.6 82.7 17.1 117 41.8 6.6 4.7 12.9 9.7 18.9 15.1L411 112.4c-6-5.3-12.4-10.3-19.1-14.8-26.1-17.8-56.1-28.8-87.5-32.2-31.4-3.4-63.1 1.1-92.3 13-29.2 11.9-55.1 30.8-75.3 55-20.2 24.3-34 53.1-40.4 84.1-1.6 7.9-2.7 15.9-3.3 24h80.3c1-8.2 3-16.2 5.9-24 5.4-14.7 13.8-28.1 24.7-39.3 10.9-11.2 24.1-20 38.6-25.9 14.5-5.8 30.2-8.5 45.8-7.9s31 4.5 45 11.5c14.6 7.2 27.5 17.4 37.6 30.1l17-17 5.7-5.8 17-17 16.9-16.9 22.8-22.8 16.9-16.9c-5.4-5.9-11-11.6-16.9-16.9-5.9-5.4-12.1-10.5-18.5-15.3-37.7-28.1-82.5-44.9-129.4-48.5s-93.8 6.3-135.3 28.3c-41.5 22.1-75.8 55.5-99.1 96.4-23 40.8-34.1 87.5-31.8 134.4 2.3 46.9 17.9 92.3 44.9 130.7 27.1 38.4 64.5 68.4 107.9 86.3 43.4 18 91.1 23.2 137.4 15.1 46.3-8.1 89.3-29.2 124.1-60.8 6-5.3 11.6-11 16.9-16.9l-16.9-16.9-12.8-12.8zM371.4 152c-24.4-20.3-55.2-31.5-87-31.7-29.2 0-57.7 9.5-81.1 27-23.4 17.5-40.6 42.1-48.9 70.1H121c6.1-26.1 18.4-50.3 35.9-70.7s39.5-36.2 64.4-46.3c24.9-10.1 51.8-14 78.4-11.5 26.7 2.5 52.4 11.4 75 25.8 6.8 4.3 13.3 9.2 19.4 14.5L371.4 152z"></path></svg> 